
        <svg xmlns="http://www.w3.org/2000/svg" xmlns:xlink="http://www.w3.org/1999/xlink" version="1.1" width="3193.548387096774" 
        height="3047.8379251600713" viewBox="0 0 3193.548387096774 3047.8379251600713">
			
			<g transform="scale(9.677419354838708) translate(10, 10)">
				<defs id="SvgjsDefs1768"></defs><g id="SvgjsG1769" featureKey="rootContainer" transform="matrix(1.569655179234111,0,0,1.569655179234111,-0.0036999316507308534,-0.0018973823812345777)" fill="#2a363b"><path xmlns="http://www.w3.org/2000/svg" d="M186.037 47.606c-2.199-3.918-4.573-7.708-7.278-11.212-2.673-3.521-5.532-6.862-8.641-9.896-1.501-1.568-3.157-2.966-4.737-4.419l-2.486-2.04c-.416-.335-.822-.681-1.244-1.006l-1.286-.948c-3.376-2.588-6.978-4.783-10.585-6.828-1.85-.953-3.631-1.955-5.557-2.789-.942-.424-1.896-.887-2.819-1.272l-2.741-1.088-1.436-.563-1.428-.485-2.84-.963-2.865-.816c-.952-.27-1.896-.548-2.859-.748l-2.861-.651c-.947-.225-1.914-.351-2.863-.53-.955-.153-1.896-.36-2.85-.465l-2.844-.348c-.941-.134-1.888-.19-2.829-.256l-2.809-.197-2.793-.058c-.926-.021-1.848-.047-2.766-.002a92.396 92.396 0 0 0-20.951 2.813C70.563 6.3 59.408 12.063 50.684 18.606a94.794 94.794 0 0 0-11.452 10.073c-.852.814-1.59 1.705-2.365 2.525l-1.131 1.235c-.364.415-.705.842-1.052 1.256l-2.014 2.438-1.806 2.405c-4.652 6.288-7.49 11.763-9.253 15.556-.942 1.875-1.481 3.375-1.92 4.36l-.631 1.504-.003.007-.574 1.533c-.356 1.019-.997 2.493-1.593 4.497-1.313 3.961-3.002 9.899-3.925 17.664l-.334 2.989-.205 3.155c-.03.539-.075 1.083-.095 1.635l-.023 1.675c.002 1.128-.071 2.283-.009 3.46.065 4.71.49 9.809 1.436 15.183 1.26 7.265 3.635 15.029 7.239 22.851.779.461 1.548.94 2.31 1.432-4.283-8.301-7.051-16.679-8.546-24.475-2.073-10.61-1.93-20.139-1.051-27.822.868-7.709 2.508-13.618 3.789-17.561.58-1.996 1.208-3.463 1.556-4.478l.56-1.525.639-1.496c.443-.978.997-2.489 1.94-4.333 1.766-3.739 4.625-9.172 9.278-15.377 4.628-6.196 11.056-13.232 19.838-19.535A91.401 91.401 0 0 1 84.063 4.544a90.29 90.29 0 0 1 20.54-2.216c.895-.022 1.792.028 2.692.072l2.713.125 2.725.263c.912.087 1.829.165 2.74.32l2.75.409c.923.124 1.831.351 2.751.522.916.198 1.847.342 2.759.585l2.753.702c.926.215 1.834.51 2.747.795l2.748.859 2.72 1.002 1.366.503c.433.17.895.378 1.341.566l2.71 1.16c.897.402 1.764.855 2.652 1.283 1.786.825 3.494 1.846 5.243 2.803 3.416 2.057 6.815 4.246 9.982 6.808l1.207.938c.396.322.776.663 1.166.994l2.327 2.01c1.474 1.431 3.021 2.8 4.415 4.336 2.893 2.969 5.534 6.223 7.991 9.637 2.489 3.396 4.649 7.057 6.641 10.824a90.788 90.788 0 0 1 8.513 24.324 91.449 91.449 0 0 1 1.326 26.142l-.353 3.283c-.149 1.09-.337 2.177-.503 3.266-.091.543-.161 1.091-.268 1.631l-.337 1.619c-.239 1.076-.419 2.167-.706 3.232-1.022 4.289-2.432 8.505-3.994 12.605-1.699 4.128-3.542 8.104-5.743 11.943-.521.972-1.138 1.89-1.702 2.837l-.864 1.41c-.292.467-.617.913-.923 1.371-.625.907-1.233 1.826-1.872 2.723l-1.994 2.632a91.506 91.506 0 0 1-18.886 18.123 90.78 90.78 0 0 1-22.873 11.874c-4.033 1.377-8.116 2.561-12.256 3.328-4.129.801-8.283 1.359-12.424 1.538-2.068.163-4.133.099-6.187.13l-3.072-.133c-.51-.026-1.021-.038-1.53-.075l-1.522-.145c-4.062-.306-8.038-1.042-11.935-1.887-1.93-.502-3.871-.929-5.744-1.555-.94-.298-1.888-.564-2.814-.886l-2.755-1.009c-.452-.169-.927-.332-1.359-.504l-1.346-.573-2.679-1.141-2.584-1.256c-.858-.417-1.718-.824-2.541-1.303l-2.485-1.376c-.831-.448-1.608-.982-2.41-1.466-.788-.507-1.605-.963-2.362-1.505l-2.282-1.588c-.769-.512-1.49-1.083-2.214-1.645l-2.165-1.677-2.062-1.769c-.686-.585-1.373-1.164-2.01-1.793a88.332 88.332 0 0 1-2.869-2.797c-1.327-1.58-2.581-3.179-3.803-4.573-2.252-2.567-4.593-5.215-6.564-8.082-2.054-1.562-4.246-2.861-6.643-3.752-9.023-3.367-19.606-.866-21.632 9.474-2.039 10.344 6.262 19.563 15.144 15.991 8.889-3.579 2.976-12.596 2.976-12.596-8.685 10.673-19.863-.046-13.219-8.189 6.649-8.149 18.864.11 24.08 5.962 5.217 5.859 8.36 16.912 22.738 25.257 6.962 4.038 13.209 4.608 17.806 4.125l2.185.863c.952.358 1.927.661 2.895.995 1.929.698 3.931 1.195 5.926 1.768 4.028.983 8.154 1.854 12.384 2.283l1.585.19c.53.053 1.062.08 1.596.12l3.207.219c2.146.025 4.309.142 6.477.029 4.342-.079 8.712-.551 13.07-1.283 4.37-.697 8.694-1.829 12.98-3.175 8.554-2.764 16.778-6.906 24.35-12.13l2.816-2.002 2.726-2.137c.924-.697 1.782-1.473 2.661-2.227.871-.764 1.77-1.499 2.594-2.317l2.502-2.426 2.385-2.547c.811-.836 1.551-1.737 2.305-2.625.744-.897 1.533-1.76 2.224-2.701l2.131-2.78c.684-.947 1.336-1.917 2.004-2.877.329-.483.674-.956.988-1.45l.927-1.49c.605-1.001 1.262-1.973 1.823-3l1.704-3.072c.572-1.017 1.074-2.138 1.612-3.204l.792-1.62c.266-.542.453-1.029.683-1.546l1.322-3.06.357-.941.301-.826.599-1.652c.419-1.094.762-2.215 1.101-3.336.332-1.124.718-2.23 1-3.368l.865-3.405c.296-1.133.484-2.291.729-3.435l.347-1.72c.11-.574.183-1.155.275-1.733.171-1.157.361-2.31.512-3.468l.355-3.485c.143-1.159.159-2.328.233-3.491.059-1.164.139-2.327.122-3.492l.009-3.49-.154-3.482c-.023-1.161-.18-2.313-.29-3.466-.123-1.152-.215-2.306-.411-3.447l-.52-3.425-.679-3.389c-1.93-8.994-5.097-17.64-9.407-25.53z"></path></g><g id="SvgjsG1770" featureKey="symbolFeature-0" transform="matrix(1.3858382864423868,0,0,1.3858382864423868,85.7487657072316,51.66834665505661)" fill="#2a363b"><title xmlns="http://www.w3.org/2000/svg">18</title><g xmlns="http://www.w3.org/2000/svg" data-name="Group"><path data-name="Compound Path" d="M74.2,17.6a8.2,8.2,0,0,0-7.9,6.2H57.9a8.2,8.2,0,1,0,0,4h8.4a8.2,8.2,0,1,0,7.9-10.2ZM50,29.9a4.2,4.2,0,1,1,4.2-4.2A4.2,4.2,0,0,1,50,29.9Zm24.2,0a4.2,4.2,0,1,1,4.2-4.2A4.2,4.2,0,0,1,74.2,29.9Z"></path><path data-name="Compound Path" d="M25.8,66.1a8.2,8.2,0,1,0,8.2,8.2A8.2,8.2,0,0,0,25.8,66.1Zm0,12.3a4.2,4.2,0,1,1,4.2-4.2A4.2,4.2,0,0,1,25.8,78.4Z"></path><path data-name="Compound Path" d="M74.2,41.4a8.1,8.1,0,0,0-5.5,14.2L55.8,68.6A8.2,8.2,0,0,0,52,66.3V57.5a8.2,8.2,0,1,0-4,0v8.8a8.2,8.2,0,1,0,9.9,5.8L72.5,57.6l1.7.2a8.2,8.2,0,1,0,0-16.3ZM45.8,49.6A4.2,4.2,0,1,1,50,53.8,4.2,4.2,0,0,1,45.8,49.6ZM50,78.4a4.2,4.2,0,1,1,4.2-4.2A4.2,4.2,0,0,1,50,78.4ZM74.2,53.8a4.2,4.2,0,1,1,4.2-4.2A4.2,4.2,0,0,1,74.2,53.8Z"></path><path data-name="Compound Path" d="M74.2,66.1a8.2,8.2,0,1,0,8.2,8.2A8.2,8.2,0,0,0,74.2,66.1Zm0,12.3a4.2,4.2,0,1,1,4.2-4.2A4.2,4.2,0,0,1,74.2,78.4Z"></path><path data-name="Compound Path" d="M33.9,25.8a8.2,8.2,0,1,0-9.8,8v8.6a8.2,8.2,0,1,0,4,.2V33.6A8.2,8.2,0,0,0,33.9,25.8Zm-12.3,0a4.2,4.2,0,1,1,4.2,4.2A4.2,4.2,0,0,1,21.6,25.8Zm8.3,24.6a4.2,4.2,0,1,1-4.2-4.2A4.2,4.2,0,0,1,29.9,50.4Z"></path></g></g><g id="SvgjsG1771" featureKey="nameFeature-0" transform="matrix(0.8378508211062058,0,0,0.8378508211062058,53.478463520933325,179.43765531277978)" fill="#2a363b"><path d="M14 14.36 c2.24 0.44 2.96 2.36 3.28 4.4 c0.12 1.08 0.2 2.16 0.16 3.28 s-0.08 2.08 -0.04 2.84 c0.16 5.24 0.24 10.48 0.24 15.72 c0 0.76 -1.24 0.84 -1.76 0.84 s-1.72 -0.16 -1.72 -0.84 c0 -5.76 -0.08 -11.48 -0.24 -17.2 c-0.04 -0.92 -0.08 -1.84 -0.04 -2.8 c0 -1.4 -0.24 -2.72 -0.68 -4 c-0.2 -0.44 -0.48 -0.68 -0.84 -0.72 c-0.44 0 -0.92 0.16 -1.36 0.52 c-2.84 2.08 -4.4 5.36 -5.16 8.72 c-0.36 1.8 -0.56 3.48 -0.52 5.12 c0 3.2 0.12 6.4 0.36 9.6 c0.04 0.28 -0.12 0.52 -0.48 0.64 c-0.4 0.12 -0.8 0.2 -1.2 0.2 c-0.6 0 -1.64 -0.08 -1.76 -0.84 c-0.2 -2.88 -0.32 -5.76 -0.36 -8.64 c-0.04 -0.16 -0.04 -0.48 -0.04 -1 c-0.08 -5.08 0.04 -10.2 0.36 -15.28 c0.12 -0.76 1.16 -0.84 1.76 -0.84 c0.44 0 0.84 0.08 1.24 0.2 c0.36 0.16 0.52 0.36 0.48 0.64 c-0.04 0.68 -0.08 1.2 -0.08 1.56 l-0.12 1.6 c1.72 -2.24 4.28 -3.88 7.16 -3.88 c0.56 0 1 0.04 1.36 0.16 z M36.2 22.4 c0.2 1.64 0.28 3.2 0.16 4.64 c-0.2 2.88 -0.44 5.84 -1.68 8.52 c-1.12 2.44 -3.68 4.08 -6.4 4.08 c-1.64 0 -3.12 -0.48 -4.44 -1.48 s-2.16 -2.32 -2.6 -3.92 c-0.4 -1.48 -0.56 -3 -0.44 -4.52 c0.32 -5.12 1.04 -14.2 7.96 -14.2 c2.08 0 3.76 0.64 5.04 1.96 c1.32 1.32 2.12 2.96 2.4 4.92 z M32.800000000000004 29.04 l0.08 -3.04 c0.04 -1.08 0 -2.16 -0.04 -3.32 c-0.08 -1.16 -0.44 -2.32 -1.12 -3.44 c-0.64 -1.16 -1.64 -1.72 -3 -1.72 c-0.44 0 -0.96 0.24 -1.48 0.68 c-2.24 3.16 -2.64 6.96 -2.92 10.68 c-0.04 1.04 -0.04 2.08 0 3.16 c0.08 1.96 0.76 3.64 2 4.96 c0.56 0.6 1.2 0.92 1.88 0.92 c0.36 0 0.76 -0.12 1.12 -0.32 c1.32 -0.84 2.24 -2.12 2.68 -3.8 c0.48 -1.68 0.76 -3.28 0.8 -4.76 z M68.88 21.2 l0 0.36 c0.28 6.12 0.64 12.12 1.24 18.2 c0.04 0.28 -0.12 0.48 -0.48 0.6 c-0.4 0.12 -0.8 0.2 -1.24 0.2 c-0.6 0 -1.6 -0.04 -1.72 -0.8 c-0.16 -1.48 -0.28 -2.96 -0.36 -4.44 c-1.48 2.44 -3.68 3.68 -6.52 3.68 c-4.44 0 -6.56 -2.68 -6.84 -6.8 c-0.12 -1.12 -0.12 -2.2 -0.08 -3.28 c0.12 -2.16 0.16 -4.32 0.12 -6.52 c-0.04 -2.24 0.04 -4.32 0.16 -6.52 c0.12 -0.76 1.12 -0.84 1.72 -0.84 c0.44 0 0.84 0.08 1.24 0.2 c0.36 0.12 0.52 0.36 0.48 0.64 c-0.04 1.08 -0.08 2.56 -0.2 4.6 c-0.12 2 -0.16 4.04 -0.12 6.16 c0 2.36 0.2 7.96 1.64 9.84 c0.56 0.72 1.16 1.08 1.84 1.08 c2.36 0 4.76 -5.28 5.08 -7.52 c0.2 -1.44 0.4 -2.88 0.52 -4.32 c0.12 -1.4 0.12 -2.84 0.08 -4.28 c-0.12 -2.04 -0.16 -3.96 -0.16 -6 c0 -0.76 1.2 -0.84 1.72 -0.84 s1.72 0.08 1.72 0.84 l0.08 2.88 c0 0.96 0.04 1.92 0.08 2.88 z M87.12 33.44 c0.28 2.2 -0.32 3.84 -1.8 4.92 s-3.16 1.64 -5.04 1.64 c-1.4 0 -2.76 -0.32 -4.12 -0.96 c-1.32 -0.68 -2.2 -1.72 -2.64 -3.16 c-0.28 -0.96 -0.32 -2 -0.04 -3.16 c0.2 -0.68 1.28 -0.84 1.88 -0.84 c0.44 0 0.92 0.08 1.36 0.2 c0.36 0.16 0.52 0.36 0.48 0.64 c-0.12 0.44 -0.12 1 -0.08 1.72 c0.04 0.84 0.32 1.72 0.76 2.6 c0.48 0.88 1.24 1.32 2.24 1.32 l0.2 0 c1.12 -0.04 1.92 -0.52 2.36 -1.44 s0.72 -1.88 0.76 -2.8 c0 -1.84 -0.64 -3.32 -1.88 -4.44 s-2.56 -2.04 -4.04 -2.8 c-0.88 -0.48 -1.68 -0.96 -2.36 -1.44 c-0.76 -0.52 -1.32 -1.24 -1.64 -2.16 c-0.36 -0.96 -0.36 -1.96 -0.04 -2.96 c0.44 -1.64 1.48 -3.16 3.04 -4.48 c1.6 -1.36 3.28 -2.04 5.04 -2.04 c2.4 0 4.56 1.36 5.16 3.76 c0.24 1.2 0.36 2.24 0.4 3.08 c0 0.28 -0.2 0.52 -0.56 0.64 c-0.4 0.16 -0.84 0.24 -1.28 0.24 s-0.88 -0.08 -1.24 -0.24 c-0.4 -0.12 -0.6 -0.36 -0.6 -0.64 c-0.04 -0.28 -0.04 -0.72 -0.08 -1.24 c-0.04 -0.4 -0.12 -0.92 -0.28 -1.6 c-0.16 -0.56 -0.36 -1.04 -0.6 -1.4 c-0.28 -0.36 -0.64 -0.56 -1.04 -0.56 c-0.48 0 -0.96 0.24 -1.48 0.68 c-1.48 1.4 -2.44 2.6 -2.92 4.64 c-0.32 1.32 0.08 2.44 1.2 3.36 c0.84 0.76 1.8 1.32 2.84 1.76 c1.44 0.68 2.76 1.6 3.96 2.84 s1.88 2.68 2.08 4.32 z M100.96 34.04 c0.24 -0.36 0.76 -0.52 1.56 -0.52 c0.52 0 1 0.08 1.44 0.24 s0.52 0.4 0.32 0.68 c-0.92 1.44 -2.04 2.8 -3.4 4.04 c-1.24 1.16 -2.84 1.72 -4.84 1.72 c-2.48 0 -4.32 -0.8 -5.48 -2.44 s-1.76 -3.56 -1.8 -5.76 c-0.04 -1.32 0.04 -2.56 0.28 -3.8 c0.88 -4.52 3.48 -13.64 9.36 -13.64 c2.44 0 4.04 1.08 4.8 3.28 c0.28 0.92 0.36 1.96 0.24 3.04 c-0.76 5.32 -6.04 8.64 -11.12 8.76 c-0.12 1.16 -0.12 2.32 0 3.48 c0.12 1 0.44 2.12 0.96 3.32 s1.4 1.88 2.6 2 c1.28 0 2.32 -0.52 3.08 -1.6 c0.76 -1 1.4 -1.92 2 -2.8 z M95.44 19.8 l-0.6 1.16 c-1.12 2.28 -1.88 4.64 -2.32 7.08 c1.8 -0.2 3.36 -0.92 4.68 -2.16 c1.36 -1.24 2.28 -2.76 2.72 -4.48 c0.28 -1.04 0.32 -2 0.16 -2.84 c-0.04 -0.4 -0.24 -0.88 -0.56 -1.44 c-0.28 -0.6 -0.68 -0.88 -1.16 -0.88 c-0.56 0.04 -1.12 0.52 -1.72 1.44 c-0.56 0.88 -0.96 1.6 -1.2 2.12 z M110.88 14.68 c-0.2 4.04 -0.32 8.2 -0.36 12.48 s-0.04 8.48 0 12.52 c-0.12 0.76 -1.2 0.84 -1.8 0.84 c-0.52 0 -1.68 -0.08 -1.68 -0.84 c-0.04 -4.2 -0.04 -8.36 0 -12.52 s0.2 -8.28 0.4 -12.48 c0 -0.68 1.2 -0.84 1.72 -0.84 c0.44 0 0.84 0.08 1.24 0.2 c0.36 0.12 0.52 0.36 0.48 0.64 z M125.07999999999998 34.04 c0.24 -0.36 0.76 -0.52 1.56 -0.52 c0.52 0 1 0.08 1.44 0.24 s0.52 0.4 0.32 0.68 c-0.92 1.44 -2.04 2.8 -3.4 4.04 c-1.24 1.16 -2.84 1.72 -4.84 1.72 c-2.48 0 -4.32 -0.8 -5.48 -2.44 s-1.76 -3.56 -1.8 -5.76 c-0.04 -1.32 0.04 -2.56 0.28 -3.8 c0.88 -4.52 3.48 -13.64 9.36 -13.64 c2.44 0 4.04 1.08 4.8 3.28 c0.28 0.92 0.36 1.96 0.24 3.04 c-0.76 5.32 -6.04 8.64 -11.12 8.76 c-0.12 1.16 -0.12 2.32 0 3.48 c0.12 1 0.44 2.12 0.96 3.32 s1.4 1.88 2.6 2 c1.28 0 2.32 -0.52 3.08 -1.6 c0.76 -1 1.4 -1.92 2 -2.8 z M119.55999999999999 19.8 l-0.6 1.16 c-1.12 2.28 -1.88 4.64 -2.32 7.08 c1.8 -0.2 3.36 -0.92 4.68 -2.16 c1.36 -1.24 2.28 -2.76 2.72 -4.48 c0.28 -1.04 0.32 -2 0.16 -2.84 c-0.04 -0.4 -0.24 -0.88 -0.56 -1.44 c-0.28 -0.6 -0.68 -0.88 -1.16 -0.88 c-0.56 0.04 -1.12 0.52 -1.72 1.44 c-0.56 0.88 -0.96 1.6 -1.2 2.12 z M144.84 33.44 c0.28 2.2 -0.32 3.84 -1.8 4.92 s-3.16 1.64 -5.04 1.64 c-1.4 0 -2.76 -0.32 -4.12 -0.96 c-1.32 -0.68 -2.2 -1.72 -2.64 -3.16 c-0.28 -0.96 -0.32 -2 -0.04 -3.16 c0.2 -0.68 1.28 -0.84 1.88 -0.84 c0.44 0 0.92 0.08 1.36 0.2 c0.36 0.16 0.52 0.36 0.48 0.64 c-0.12 0.44 -0.12 1 -0.08 1.72 c0.04 0.84 0.32 1.72 0.76 2.6 c0.48 0.88 1.24 1.32 2.24 1.32 l0.2 0 c1.12 -0.04 1.92 -0.52 2.36 -1.44 s0.72 -1.88 0.76 -2.8 c0 -1.84 -0.64 -3.32 -1.88 -4.44 s-2.56 -2.04 -4.04 -2.8 c-0.88 -0.48 -1.68 -0.96 -2.36 -1.44 c-0.76 -0.52 -1.32 -1.24 -1.64 -2.16 c-0.36 -0.96 -0.36 -1.96 -0.04 -2.96 c0.44 -1.64 1.48 -3.16 3.04 -4.48 c1.6 -1.36 3.28 -2.04 5.04 -2.04 c2.4 0 4.56 1.36 5.16 3.76 c0.24 1.2 0.36 2.24 0.4 3.08 c0 0.28 -0.2 0.52 -0.56 0.64 c-0.4 0.16 -0.84 0.24 -1.28 0.24 s-0.88 -0.08 -1.24 -0.24 c-0.4 -0.12 -0.6 -0.36 -0.6 -0.64 c-0.04 -0.28 -0.04 -0.72 -0.08 -1.24 c-0.04 -0.4 -0.12 -0.92 -0.28 -1.6 c-0.16 -0.56 -0.36 -1.04 -0.6 -1.4 c-0.28 -0.36 -0.64 -0.56 -1.04 -0.56 c-0.48 0 -0.96 0.24 -1.48 0.68 c-1.48 1.4 -2.44 2.6 -2.92 4.64 c-0.32 1.32 0.08 2.44 1.2 3.36 c0.84 0.76 1.8 1.32 2.84 1.76 c1.44 0.68 2.76 1.6 3.96 2.84 s1.88 2.68 2.08 4.32 z M160.56 33.44 c0.28 2.2 -0.32 3.84 -1.8 4.92 s-3.16 1.64 -5.04 1.64 c-1.4 0 -2.76 -0.32 -4.12 -0.96 c-1.32 -0.68 -2.2 -1.72 -2.64 -3.16 c-0.28 -0.96 -0.32 -2 -0.04 -3.16 c0.2 -0.68 1.28 -0.84 1.88 -0.84 c0.44 0 0.92 0.08 1.36 0.2 c0.36 0.16 0.52 0.36 0.48 0.64 c-0.12 0.44 -0.12 1 -0.08 1.72 c0.04 0.84 0.32 1.72 0.76 2.6 c0.48 0.88 1.24 1.32 2.24 1.32 l0.2 0 c1.12 -0.04 1.92 -0.52 2.36 -1.44 s0.72 -1.88 0.76 -2.8 c0 -1.84 -0.64 -3.32 -1.88 -4.44 s-2.56 -2.04 -4.04 -2.8 c-0.88 -0.48 -1.68 -0.96 -2.36 -1.44 c-0.76 -0.52 -1.32 -1.24 -1.64 -2.16 c-0.36 -0.96 -0.36 -1.96 -0.04 -2.96 c0.44 -1.64 1.48 -3.16 3.04 -4.48 c1.6 -1.36 3.28 -2.04 5.04 -2.04 c2.4 0 4.56 1.36 5.16 3.76 c0.24 1.2 0.36 2.24 0.4 3.08 c0 0.28 -0.2 0.52 -0.56 0.64 c-0.4 0.16 -0.84 0.24 -1.28 0.24 s-0.88 -0.08 -1.24 -0.24 c-0.4 -0.12 -0.6 -0.36 -0.6 -0.64 c-0.04 -0.28 -0.04 -0.72 -0.08 -1.24 c-0.04 -0.4 -0.12 -0.92 -0.28 -1.6 c-0.16 -0.56 -0.36 -1.04 -0.6 -1.4 c-0.28 -0.36 -0.64 -0.56 -1.04 -0.56 c-0.48 0 -0.96 0.24 -1.48 0.68 c-1.48 1.4 -2.44 2.6 -2.92 4.64 c-0.32 1.32 0.08 2.44 1.2 3.36 c0.84 0.76 1.8 1.32 2.84 1.76 c1.44 0.68 2.76 1.6 3.96 2.84 s1.88 2.68 2.08 4.32 z M183.28 38.8 c0.92 -0.8 1.72 -1.2 2.36 -1.2 c0.52 0 0.88 0.2 1.04 0.6 c0.12 0.4 0.08 0.76 -0.12 1.04 c-0.36 0.48 -0.8 0.84 -1.4 1.12 c-0.64 0.2 -1.24 0.32 -1.84 0.32 c-1.16 0 -2.08 -0.28 -2.68 -0.8 c-1.08 -0.8 -1.72 -1.92 -1.96 -3.36 c-0.2 -1.44 -0.36 -2.8 -0.4 -4.04 s-0.08 -2.4 -0.08 -3.64 s0.04 -2.4 0.08 -3.64 l-2.56 0 c-0.76 0 -1.12 -0.4 -1.12 -1.16 s0.36 -1.16 1.12 -1.16 l2.64 0 c0.04 -1.32 0.08 -2.64 0.2 -3.96 l0.16 -3.92 c0 -0.68 1.2 -0.84 1.72 -0.84 c0.44 0 0.84 0.08 1.24 0.2 c0.36 0.12 0.52 0.36 0.48 0.64 l-0.12 3.92 l-0.12 3.96 l2.88 0 c0.76 0 1.12 0.4 1.12 1.16 s-0.36 1.16 -1.12 1.16 l-2.96 0 l0 0.64 l-0.12 3.48 c-0.04 1.16 0 2.28 0.04 3.52 c0.04 0.92 0.16 1.96 0.32 3.12 s0.56 2.08 1.2 2.84 z M200.52 34.04 c0.24 -0.36 0.76 -0.52 1.56 -0.52 c0.52 0 1 0.08 1.44 0.24 s0.52 0.4 0.32 0.68 c-0.92 1.44 -2.04 2.8 -3.4 4.04 c-1.24 1.16 -2.84 1.72 -4.84 1.72 c-2.48 0 -4.32 -0.8 -5.48 -2.44 s-1.76 -3.56 -1.8 -5.76 c-0.04 -1.32 0.04 -2.56 0.28 -3.8 c0.88 -4.52 3.48 -13.64 9.36 -13.64 c2.44 0 4.04 1.08 4.8 3.28 c0.28 0.92 0.36 1.96 0.24 3.04 c-0.76 5.32 -6.04 8.64 -11.12 8.76 c-0.12 1.16 -0.12 2.32 0 3.48 c0.12 1 0.44 2.12 0.96 3.32 s1.4 1.88 2.6 2 c1.28 0 2.32 -0.52 3.08 -1.6 c0.76 -1 1.4 -1.92 2 -2.8 z M195 19.8 l-0.6 1.16 c-1.12 2.28 -1.88 4.64 -2.32 7.08 c1.8 -0.2 3.36 -0.92 4.68 -2.16 c1.36 -1.24 2.28 -2.76 2.72 -4.48 c0.28 -1.04 0.32 -2 0.16 -2.84 c-0.04 -0.4 -0.24 -0.88 -0.56 -1.44 c-0.28 -0.6 -0.68 -0.88 -1.16 -0.88 c-0.56 0.04 -1.12 0.52 -1.72 1.44 c-0.56 0.88 -0.96 1.6 -1.2 2.12 z M219.32 34.36 c0.2 -0.68 1.16 -0.76 1.76 -0.76 c0.44 0 0.84 0.08 1.24 0.2 c0.36 0.16 0.52 0.36 0.48 0.56 c-1 3.68 -4.4 5.84 -8.12 5.84 c-2.76 0 -5.4 -1.04 -6.96 -3.44 c-1.16 -1.84 -1.64 -3.96 -1.44 -6.36 c0.32 -3.92 2.36 -11.8 6 -14.16 c1.16 -0.84 2.6 -1.24 4.32 -1.24 c2.6 0 4.76 1.08 5.2 3.84 c0.04 0.28 -0.12 0.52 -0.48 0.64 c-0.4 0.12 -0.8 0.2 -1.24 0.2 c-0.6 0 -1.64 -0.08 -1.76 -0.84 c-0.16 -1.4 -0.8 -2.12 -1.88 -2.12 c-0.52 0 -1.04 0.2 -1.64 0.64 c-2.76 2.36 -4.72 8.92 -5.04 12.72 c-0.16 1.4 -0.08 2.84 0.24 4.28 c0.2 1.08 0.76 2.08 1.6 2.92 c0.88 0.84 1.88 1.24 3.04 1.24 c2.36 0 4.08 -2.04 4.68 -4.16 z M240.28 27.759999999999998 c0.28 1.92 0.24 3.88 0.24 5.8 l-0.12 3.28 c-0.08 0.92 -0.2 1.76 -0.32 2.52 c-0.12 0.64 -1.32 0.8 -1.84 0.8 c-0.44 0 -0.8 -0.08 -1.16 -0.2 s-0.52 -0.32 -0.48 -0.6 c0.28 -2.76 0.4 -5.48 0.36 -8.2 c-0.04 -0.6 -0.04 -1.24 -0.04 -1.84 c0 -0.68 -0.04 -1.32 -0.16 -1.84 c-0.04 -0.36 -0.16 -0.84 -0.36 -1.44 s-0.48 -0.92 -0.92 -0.92 c-1.44 0 -3.92 3.08 -4.56 4.16 c-1.08 1.68 -1.76 3.36 -2.08 5 c0.04 0.68 0.04 1.52 0 2.48 c-0.04 1 -0.04 1.8 -0.04 2.48 c0 0.76 -1.2 0.84 -1.72 0.84 s-1.72 -0.16 -1.72 -0.84 c-0.04 -0.68 -0.04 -1.52 0 -2.48 c0 -0.96 0 -1.8 0.04 -2.48 c0.04 -3.2 0.08 -6.4 0.08 -9.8 l-0.08 -9.76 c0 -0.76 1.2 -0.84 1.72 -0.84 s1.72 0.08 1.72 0.84 c0.04 2 0.04 4.12 0 6.32 c-0.04 2.24 -0.08 4.32 -0.04 6.36 c1.56 -1.88 3.52 -3.76 6.08 -4.04 c0.12 -0.04 0.36 -0.04 0.72 -0.04 c2.72 0 4.36 1.84 4.68 4.44 z"></path></g>
			</g>
		</svg>
	